<?xml version="1.0" standalone="no"?><!DOCTYPE svg PUBLIC "-//W3C//DTD SVG 1.1//EN" "http://www.w3.org/Graphics/SVG/1.1/DTD/svg11.dtd"><svg t="1591500638753" class="icon" viewBox="0 0 1024 1024" version="1.1" xmlns="http://www.w3.org/2000/svg" p-id="3150" xmlns:xlink="http://www.w3.org/1999/xlink" width="32" height="32"><defs><style type="text/css"></style></defs><path d="M512 298.666667c117.76 0 213.333333 95.573333 213.333333 213.333333 0 27.52-5.546667 53.76-15.146667 77.866667l124.8 124.8c64.426667-53.76 115.2-123.306667 146.56-202.666667-74.026667-187.306667-256-320-469.546667-320-59.733333 0-116.906667 10.666667-170.026667 29.866667l92.16 91.946667c24.106667-9.386667 50.346667-15.146667 77.866667-15.146667zM85.333333 182.4l116.693333 116.693333c-70.4 55.04-126.08 128.213333-159.36 212.906667 73.813333 187.306667 256 320 469.333333 320 66.133333 0 129.28-12.8 187.093333-36.053333l18.133333 18.133333 124.373333 124.586667 54.4-54.186667-756.266667-756.48-54.4 54.4zM321.28 418.133333l65.92 65.92c-1.92 9.173333-3.2 18.346667-3.2 27.946667 0 70.613333 57.386667 128 128 128 9.6 0 18.773333-1.28 27.733333-3.2l65.92 65.92c-28.373333 14.08-59.946667 22.613333-93.653333 22.613333-117.76 0-213.333333-95.573333-213.333333-213.333333 0-33.706667 8.533333-65.28 22.613333-93.866667zM504.96 384.64l134.4 134.4 0.64-7.04c0-70.613333-57.386667-128-128-128l-7.04 0.64z" p-id="3151" fill="#8a8a8a"></path></svg>